<?xml version="1.0" encoding="UTF-8"?>
<svg xmlns="http://www.w3.org/2000/svg" xmlns:xlink="http://www.w3.org/1999/xlink" width="30px" height="30px" viewBox="0 0 30 30" version="1.1">
<g id="surface1">
<path style=" stroke:none;fill-rule:nonzero;fill:rgb(0%,0%,0%);fill-opacity:1;" d="M 21.460938 30 L 8.539062 30 C 3.832031 30 0 26.167969 0 21.460938 L 0 8.539062 C 0 3.832031 3.832031 0 8.539062 0 L 21.460938 0 C 26.167969 0 30 3.832031 30 8.539062 L 30 21.460938 C 30 26.167969 26.167969 30 21.460938 30 Z M 8.539062 2.570312 C 5.246094 2.578125 2.578125 5.246094 2.570312 8.539062 L 2.570312 21.460938 C 2.578125 24.753906 5.246094 27.421875 8.539062 27.429688 L 21.460938 27.429688 C 24.753906 27.421875 27.421875 24.753906 27.429688 21.460938 L 27.429688 8.539062 C 27.421875 5.246094 24.753906 2.578125 21.460938 2.570312 Z M 8.539062 2.570312 "/>
<path style=" stroke:none;fill-rule:nonzero;fill:rgb(0%,0%,0%);fill-opacity:1;" d="M 15 22.679688 C 10.757812 22.675781 7.324219 19.242188 7.320312 15 C 7.320312 10.765625 10.765625 7.320312 15 7.320312 C 19.234375 7.320312 22.679688 10.765625 22.679688 15 C 22.675781 19.242188 19.242188 22.675781 15 22.679688 Z M 15 9.890625 C 12.179688 9.890625 9.890625 12.179688 9.890625 15 C 9.890625 17.820312 12.179688 20.109375 15 20.109375 C 17.820312 20.109375 20.109375 17.820312 20.109375 15 C 20.105469 12.179688 17.820312 9.894531 15 9.890625 Z M 15 9.890625 "/>
<path style=" stroke:none;fill-rule:nonzero;fill:rgb(0%,0%,0%);fill-opacity:1;" d="M 24.855469 6.878906 C 24.859375 7.898438 24.03125 8.726562 23.011719 8.726562 C 21.992188 8.726562 21.164062 7.898438 21.164062 6.878906 C 21.164062 5.859375 21.992188 5.035156 23.011719 5.03125 C 24.03125 5.03125 24.855469 5.859375 24.855469 6.878906 Z M 24.855469 6.878906 "/>
</g>
</svg>
