<?xml version="1.0" encoding="UTF-8"?>
<svg xmlns="http://www.w3.org/2000/svg" xmlns:xlink="http://www.w3.org/1999/xlink" width="30px" height="30px" viewBox="0 0 30 30" version="1.1">
<g id="surface1">
<path style=" stroke:none;fill-rule:nonzero;fill:rgb(0%,0%,0%);fill-opacity:1;" d="M 26.484375 0 L 3.515625 0 C 1.578125 0.00390625 0.00390625 1.578125 0 3.515625 L 0 26.484375 C 0.00390625 28.421875 1.578125 29.996094 3.515625 30 L 15.777344 30 L 15.777344 18.503906 L 12.1875 18.503906 L 12.1875 13.875 L 15.777344 13.875 L 15.777344 10.511719 C 15.777344 6.734375 17.625 4.488281 21.882812 4.488281 L 25.421875 4.488281 L 25.421875 9.117188 L 22.742188 9.117188 C 21.085938 9.117188 20.976562 9.761719 20.976562 10.972656 L 20.96875 13.875 L 25.214844 13.875 L 24.628906 18.503906 L 20.96875 18.503906 L 20.96875 30 L 26.484375 30 C 28.421875 29.996094 29.996094 28.421875 30 26.484375 L 30 3.515625 C 29.996094 1.578125 28.421875 0.00390625 26.484375 0 Z M 26.484375 0 "/>
</g>
</svg>
